<svg xmlns="http://www.w3.org/2000/svg" viewBox="0 0 295.54 330.78"><defs><style>.cls-1{fill:#fff;}.cls-2,.cls-3{fill:none;stroke:#fff;stroke-miterlimit:10;}.cls-2{stroke-width:0.75px;}.cls-3{stroke-width:0.5px;}</style></defs><title>woodsolverLogoBlack</title><g id="Ruler"><polygon points="4.02 307.77 278.17 3.39 294.84 19 20.69 323.38 4.02 307.77"/><path d="M278.2,4.11,294.14,19,20.66,322.66,4.72,307.74,278.2,4.11m-.06-1.43L3.32,307.8l17.4,16.29L295.54,19,278.14,2.68Z"/><ellipse class="cls-1" cx="19.53" cy="307.95" rx="2.72" ry="2.77"/><ellipse class="cls-1" cx="279.83" cy="18.96" rx="2.72" ry="2.77"/><line class="cls-2" x1="4.2" y1="306.73" x2="8.2" y2="310.48"/><line class="cls-2" x1="26.83" y1="281.61" x2="30.83" y2="285.36"/><line class="cls-2" x1="26.92" y1="281.51" x2="30.92" y2="285.26"/><line class="cls-2" x1="49.55" y1="256.39" x2="53.55" y2="260.14"/><line class="cls-2" x1="49.64" y1="256.29" x2="53.64" y2="260.03"/><line class="cls-2" x1="72.26" y1="231.17" x2="76.26" y2="234.91"/><line class="cls-2" x1="72.36" y1="231.06" x2="76.36" y2="234.81"/><line class="cls-2" x1="94.98" y1="205.94" x2="98.98" y2="209.69"/><line class="cls-2" x1="95.07" y1="205.84" x2="99.08" y2="209.59"/><line class="cls-2" x1="117.7" y1="180.72" x2="121.7" y2="184.47"/><line class="cls-2" x1="117.79" y1="180.62" x2="121.79" y2="184.37"/><line class="cls-2" x1="140.42" y1="155.5" x2="144.42" y2="159.25"/><line class="cls-2" x1="140.51" y1="155.4" x2="144.51" y2="159.14"/><line class="cls-2" x1="163.13" y1="130.28" x2="167.14" y2="134.02"/><line class="cls-2" x1="163.23" y1="130.17" x2="167.23" y2="133.92"/><line class="cls-2" x1="185.85" y1="105.05" x2="189.85" y2="108.8"/><line class="cls-2" x1="185.94" y1="104.95" x2="189.95" y2="108.7"/><line class="cls-2" x1="208.57" y1="79.83" x2="212.57" y2="83.58"/><line class="cls-2" x1="208.66" y1="79.73" x2="212.66" y2="83.48"/><line class="cls-2" x1="231.29" y1="54.61" x2="235.29" y2="58.36"/><line class="cls-2" x1="231.38" y1="54.51" x2="235.38" y2="58.25"/><line class="cls-2" x1="254" y1="29.39" x2="258.01" y2="33.13"/><line class="cls-2" x1="254.1" y1="29.28" x2="258.1" y2="33.03"/><line class="cls-2" x1="276.72" y1="4.16" x2="280.72" y2="7.91"/><line class="cls-3" x1="5.59" y1="305.14" x2="6.89" y2="306.36"/><line class="cls-3" x1="7" y1="303.58" x2="8.3" y2="304.79"/><line class="cls-3" x1="8.41" y1="302.01" x2="9.71" y2="303.23"/><line class="cls-3" x1="9.82" y1="300.45" x2="11.12" y2="301.66"/><line class="cls-3" x1="11.23" y1="298.88" x2="12.53" y2="300.09"/><line class="cls-3" x1="12.64" y1="297.31" x2="13.94" y2="298.53"/><line class="cls-3" x1="14.05" y1="295.75" x2="15.35" y2="296.96"/><line class="cls-3" x1="15.47" y1="294.18" x2="16.76" y2="295.39"/><line class="cls-3" x1="16.88" y1="292.61" x2="18.17" y2="293.83"/><line class="cls-3" x1="18.29" y1="291.05" x2="19.58" y2="292.26"/><line class="cls-3" x1="19.7" y1="289.48" x2="20.99" y2="290.7"/><line class="cls-3" x1="21.11" y1="287.92" x2="22.4" y2="289.13"/><line class="cls-3" x1="22.52" y1="286.35" x2="23.81" y2="287.56"/><line class="cls-3" x1="23.93" y1="284.78" x2="25.23" y2="286"/><line class="cls-3" x1="25.34" y1="283.22" x2="26.64" y2="284.43"/><line class="cls-3" x1="28.31" y1="279.92" x2="29.6" y2="281.13"/><line class="cls-3" x1="29.72" y1="278.36" x2="31.02" y2="279.57"/><line class="cls-3" x1="31.13" y1="276.79" x2="32.43" y2="278"/><line class="cls-3" x1="32.54" y1="275.22" x2="33.84" y2="276.44"/><line class="cls-3" x1="33.95" y1="273.66" x2="35.25" y2="274.87"/><line class="cls-3" x1="35.36" y1="272.09" x2="36.66" y2="273.3"/><line class="cls-3" x1="36.77" y1="270.52" x2="38.07" y2="271.74"/><line class="cls-3" x1="38.18" y1="268.96" x2="39.48" y2="270.17"/><line class="cls-3" x1="39.59" y1="267.39" x2="40.89" y2="268.61"/><line class="cls-3" x1="41" y1="265.83" x2="42.3" y2="267.04"/><line class="cls-3" x1="42.41" y1="264.26" x2="43.71" y2="265.47"/><line class="cls-3" x1="43.83" y1="262.69" x2="45.12" y2="263.91"/><line class="cls-3" x1="45.24" y1="261.13" x2="46.53" y2="262.34"/><line class="cls-3" x1="46.65" y1="259.56" x2="47.94" y2="260.77"/><line class="cls-3" x1="48.06" y1="257.99" x2="49.35" y2="259.21"/><line class="cls-3" x1="51.03" y1="254.7" x2="52.32" y2="255.91"/><line class="cls-3" x1="52.44" y1="253.13" x2="53.73" y2="254.35"/><line class="cls-3" x1="53.85" y1="251.57" x2="55.14" y2="252.78"/><line class="cls-3" x1="55.26" y1="250" x2="56.55" y2="251.21"/><line class="cls-3" x1="56.67" y1="248.43" x2="57.96" y2="249.65"/><line class="cls-3" x1="58.08" y1="246.87" x2="59.38" y2="248.08"/><line class="cls-3" x1="59.49" y1="245.3" x2="60.79" y2="246.52"/><line class="cls-3" x1="60.9" y1="243.74" x2="62.2" y2="244.95"/><line class="cls-3" x1="62.31" y1="242.17" x2="63.61" y2="243.38"/><line class="cls-3" x1="63.72" y1="240.6" x2="65.02" y2="241.82"/><line class="cls-3" x1="65.13" y1="239.04" x2="66.43" y2="240.25"/><line class="cls-3" x1="66.54" y1="237.47" x2="67.84" y2="238.68"/><line class="cls-3" x1="67.95" y1="235.9" x2="69.25" y2="237.12"/><line class="cls-3" x1="69.36" y1="234.34" x2="70.66" y2="235.55"/><line class="cls-3" x1="70.77" y1="232.77" x2="72.07" y2="233.99"/><line class="cls-3" x1="73.74" y1="229.48" x2="75.04" y2="230.69"/><line class="cls-3" x1="75.15" y1="227.91" x2="76.45" y2="229.12"/><line class="cls-3" x1="76.56" y1="226.34" x2="77.86" y2="227.56"/><line class="cls-3" x1="77.98" y1="224.78" x2="79.27" y2="225.99"/><line class="cls-3" x1="79.39" y1="223.21" x2="80.68" y2="224.43"/><line class="cls-3" x1="80.8" y1="221.65" x2="82.09" y2="222.86"/><line class="cls-3" x1="82.21" y1="220.08" x2="83.5" y2="221.29"/><line class="cls-3" x1="83.62" y1="218.51" x2="84.91" y2="219.73"/><line class="cls-3" x1="85.03" y1="216.95" x2="86.32" y2="218.16"/><line class="cls-3" x1="86.44" y1="215.38" x2="87.74" y2="216.59"/><line class="cls-3" x1="87.85" y1="213.81" x2="89.15" y2="215.03"/><line class="cls-3" x1="89.26" y1="212.25" x2="90.56" y2="213.46"/><line class="cls-3" x1="90.67" y1="210.68" x2="91.97" y2="211.9"/><line class="cls-3" x1="92.08" y1="209.12" x2="93.38" y2="210.33"/><line class="cls-3" x1="93.49" y1="207.55" x2="94.79" y2="208.76"/><line class="cls-3" x1="96.46" y1="204.25" x2="97.76" y2="205.47"/><line class="cls-3" x1="97.87" y1="202.69" x2="99.17" y2="203.9"/><line class="cls-3" x1="99.28" y1="201.12" x2="100.58" y2="202.33"/><line class="cls-3" x1="100.69" y1="199.56" x2="101.99" y2="200.77"/><line class="cls-3" x1="102.1" y1="197.99" x2="103.4" y2="199.2"/><line class="cls-3" x1="103.51" y1="196.42" x2="104.81" y2="197.64"/><line class="cls-3" x1="104.93" y1="194.86" x2="106.22" y2="196.07"/><line class="cls-3" x1="106.34" y1="193.29" x2="107.63" y2="194.5"/><line class="cls-3" x1="107.75" y1="191.72" x2="109.04" y2="192.94"/><line class="cls-3" x1="109.16" y1="190.16" x2="110.45" y2="191.37"/><line class="cls-3" x1="110.57" y1="188.59" x2="111.86" y2="189.81"/><line class="cls-3" x1="111.98" y1="187.03" x2="113.27" y2="188.24"/><line class="cls-3" x1="113.39" y1="185.46" x2="114.68" y2="186.67"/><line class="cls-3" x1="114.8" y1="183.89" x2="116.1" y2="185.11"/><line class="cls-3" x1="116.21" y1="182.33" x2="117.51" y2="183.54"/><line class="cls-3" x1="119.18" y1="179.03" x2="120.47" y2="180.24"/><line class="cls-3" x1="120.59" y1="177.47" x2="121.89" y2="178.68"/><line class="cls-3" x1="122" y1="175.9" x2="123.3" y2="177.11"/><line class="cls-3" x1="123.41" y1="174.33" x2="124.71" y2="175.55"/><line class="cls-3" x1="124.82" y1="172.77" x2="126.12" y2="173.98"/><line class="cls-3" x1="126.23" y1="171.2" x2="127.53" y2="172.41"/><line class="cls-3" x1="127.64" y1="169.63" x2="128.94" y2="170.85"/><line class="cls-3" x1="129.05" y1="168.07" x2="130.35" y2="169.28"/><line class="cls-3" x1="130.46" y1="166.5" x2="131.76" y2="167.72"/><line class="cls-3" x1="131.87" y1="164.94" x2="133.17" y2="166.15"/><line class="cls-3" x1="133.29" y1="163.37" x2="134.58" y2="164.58"/><line class="cls-3" x1="134.7" y1="161.8" x2="135.99" y2="163.02"/><line class="cls-3" x1="136.11" y1="160.24" x2="137.4" y2="161.45"/><line class="cls-3" x1="137.52" y1="158.67" x2="138.81" y2="159.88"/><line class="cls-3" x1="138.93" y1="157.1" x2="140.22" y2="158.32"/><line class="cls-3" x1="141.9" y1="153.81" x2="143.19" y2="155.02"/><line class="cls-3" x1="143.31" y1="152.24" x2="144.6" y2="153.46"/><line class="cls-3" x1="144.72" y1="150.68" x2="146.01" y2="151.89"/><line class="cls-3" x1="146.13" y1="149.11" x2="147.42" y2="150.32"/><line class="cls-3" x1="147.54" y1="147.54" x2="148.83" y2="148.76"/><line class="cls-3" x1="148.95" y1="145.98" x2="150.25" y2="147.19"/><line class="cls-3" x1="150.36" y1="144.41" x2="151.66" y2="145.63"/><line class="cls-3" x1="151.77" y1="142.85" x2="153.07" y2="144.06"/><line class="cls-3" x1="153.18" y1="141.28" x2="154.48" y2="142.49"/><line class="cls-3" x1="154.59" y1="139.71" x2="155.89" y2="140.93"/><line class="cls-3" x1="156" y1="138.15" x2="157.3" y2="139.36"/><line class="cls-3" x1="157.41" y1="136.58" x2="158.71" y2="137.79"/><line class="cls-3" x1="158.82" y1="135.01" x2="160.12" y2="136.23"/><line class="cls-3" x1="160.23" y1="133.45" x2="161.53" y2="134.66"/><line class="cls-3" x1="161.65" y1="131.88" x2="162.94" y2="133.1"/><line class="cls-3" x1="164.61" y1="128.59" x2="165.91" y2="129.8"/><line class="cls-3" x1="166.02" y1="127.02" x2="167.32" y2="128.23"/><line class="cls-3" x1="167.44" y1="125.45" x2="168.73" y2="126.67"/><line class="cls-3" x1="168.85" y1="123.89" x2="170.14" y2="125.1"/><line class="cls-3" x1="170.26" y1="122.32" x2="171.55" y2="123.53"/><line class="cls-3" x1="171.67" y1="120.76" x2="172.96" y2="121.97"/><line class="cls-3" x1="173.08" y1="119.19" x2="174.37" y2="120.4"/><line class="cls-3" x1="174.49" y1="117.62" x2="175.78" y2="118.84"/><line class="cls-3" x1="175.9" y1="116.06" x2="177.2" y2="117.27"/><line class="cls-3" x1="177.31" y1="114.49" x2="178.61" y2="115.7"/><line class="cls-3" x1="178.72" y1="112.92" x2="180.02" y2="114.14"/><line class="cls-3" x1="180.13" y1="111.36" x2="181.43" y2="112.57"/><line class="cls-3" x1="181.54" y1="109.79" x2="182.84" y2="111.01"/><line class="cls-3" x1="182.95" y1="108.23" x2="184.25" y2="109.44"/><line class="cls-3" x1="184.36" y1="106.66" x2="185.66" y2="107.87"/><line class="cls-3" x1="187.33" y1="103.36" x2="188.63" y2="104.58"/><line class="cls-3" x1="188.74" y1="101.8" x2="190.04" y2="103.01"/><line class="cls-3" x1="190.15" y1="100.23" x2="191.45" y2="101.44"/><line class="cls-3" x1="191.56" y1="98.67" x2="192.86" y2="99.88"/><line class="cls-3" x1="192.97" y1="97.1" x2="194.27" y2="98.31"/><line class="cls-3" x1="194.38" y1="95.53" x2="195.68" y2="96.75"/><line class="cls-3" x1="195.8" y1="93.97" x2="197.09" y2="95.18"/><line class="cls-3" x1="197.21" y1="92.4" x2="198.5" y2="93.61"/><line class="cls-3" x1="198.62" y1="90.83" x2="199.91" y2="92.05"/><line class="cls-3" x1="200.03" y1="89.27" x2="201.32" y2="90.48"/><line class="cls-3" x1="201.44" y1="87.7" x2="202.73" y2="88.92"/><line class="cls-3" x1="202.85" y1="86.14" x2="204.14" y2="87.35"/><line class="cls-3" x1="204.26" y1="84.57" x2="205.56" y2="85.78"/><line class="cls-3" x1="205.67" y1="83" x2="206.97" y2="84.22"/><line class="cls-3" x1="207.08" y1="81.44" x2="208.38" y2="82.65"/><line class="cls-3" x1="210.05" y1="78.14" x2="211.35" y2="79.35"/><line class="cls-3" x1="211.46" y1="76.57" x2="212.76" y2="77.79"/><line class="cls-3" x1="212.87" y1="75.01" x2="214.17" y2="76.22"/><line class="cls-3" x1="214.28" y1="73.44" x2="215.58" y2="74.66"/><line class="cls-3" x1="215.69" y1="71.88" x2="216.99" y2="73.09"/><line class="cls-3" x1="217.1" y1="70.31" x2="218.4" y2="71.52"/><line class="cls-3" x1="218.51" y1="68.74" x2="219.81" y2="69.96"/><line class="cls-3" x1="219.92" y1="67.18" x2="221.22" y2="68.39"/><line class="cls-3" x1="221.33" y1="65.61" x2="222.63" y2="66.82"/><line class="cls-3" x1="222.74" y1="64.05" x2="224.04" y2="65.26"/><line class="cls-3" x1="224.16" y1="62.48" x2="225.45" y2="63.69"/><line class="cls-3" x1="225.57" y1="60.91" x2="226.86" y2="62.13"/><line class="cls-3" x1="226.98" y1="59.35" x2="228.27" y2="60.56"/><line class="cls-3" x1="228.39" y1="57.78" x2="229.68" y2="58.99"/><line class="cls-3" x1="229.8" y1="56.21" x2="231.09" y2="57.43"/><line class="cls-3" x1="232.77" y1="52.92" x2="234.06" y2="54.13"/><line class="cls-3" x1="234.18" y1="51.35" x2="235.47" y2="52.57"/><line class="cls-3" x1="235.59" y1="49.79" x2="236.88" y2="51"/><line class="cls-3" x1="237" y1="48.22" x2="238.29" y2="49.43"/><line class="cls-3" x1="238.41" y1="46.65" x2="239.71" y2="47.87"/><line class="cls-3" x1="239.82" y1="45.09" x2="241.12" y2="46.3"/><line class="cls-3" x1="241.23" y1="43.52" x2="242.53" y2="44.73"/><line class="cls-3" x1="242.64" y1="41.96" x2="243.94" y2="43.17"/><line class="cls-3" x1="244.05" y1="40.39" x2="245.35" y2="41.6"/><line class="cls-3" x1="245.46" y1="38.82" x2="246.76" y2="40.04"/><line class="cls-3" x1="246.87" y1="37.26" x2="248.17" y2="38.47"/><line class="cls-3" x1="248.28" y1="35.69" x2="249.58" y2="36.9"/><line class="cls-3" x1="249.69" y1="34.12" x2="250.99" y2="35.34"/><line class="cls-3" x1="251.11" y1="32.56" x2="252.4" y2="33.77"/><line class="cls-3" x1="252.52" y1="30.99" x2="253.81" y2="32.21"/><line class="cls-3" x1="255.48" y1="27.7" x2="256.78" y2="28.91"/><line class="cls-3" x1="256.9" y1="26.13" x2="258.19" y2="27.34"/><line class="cls-3" x1="258.31" y1="24.56" x2="259.6" y2="25.78"/><line class="cls-3" x1="259.72" y1="23" x2="261.01" y2="24.21"/><line class="cls-3" x1="261.13" y1="21.43" x2="262.42" y2="22.64"/><line class="cls-3" x1="262.54" y1="19.87" x2="263.83" y2="21.08"/><line class="cls-3" x1="263.95" y1="18.3" x2="265.24" y2="19.51"/><line class="cls-3" x1="265.36" y1="16.73" x2="266.65" y2="17.95"/><line class="cls-3" x1="266.77" y1="15.17" x2="268.07" y2="16.38"/><line class="cls-3" x1="268.18" y1="13.6" x2="269.48" y2="14.81"/><line class="cls-3" x1="269.59" y1="12.03" x2="270.89" y2="13.25"/><line class="cls-3" x1="271" y1="10.47" x2="272.3" y2="11.68"/><line class="cls-3" x1="272.41" y1="8.9" x2="273.71" y2="10.12"/><line class="cls-3" x1="273.82" y1="7.34" x2="275.12" y2="8.55"/><line class="cls-3" x1="275.23" y1="5.77" x2="276.53" y2="6.98"/><line class="cls-2" x1="276.81" y1="4.06" x2="280.82" y2="7.81"/></g><g id="hammer"><path d="M58,57l61,70,12,13,5,5,10,7,20,20,40,43,45,51,22,23,9,9,9,8a6.93,6.93,0,0,1,3,4c1,3-8,12-8,12s-14,11.88-15,8l-38-46-50-54-37-44-14-18-3-4-4-6-9-11L78,104,64,88,53,76l-7-7L36,59s-6-5-11,0a33.35,33.35,0,0,0-7,10L13,79l-3,8L8,94s0,2-4,3L0,93S-1,62,21,31L31,20S53,25,51,7l8-7,4,1L80,21s2,5,1,5l-9,8S53,27,56,51c.3,2.41.74,4.59,2,6"/><path class="cls-1" d="M258.73,315.32c19.06-6.51,21.36-19.53,21.36-19.53l-8.85-8.73c-5.36,13.71-20.38,19-20.38,19Z"/><path class="cls-1" d="M139.37,177.57c6-5.39,5.79-5.07,6.54-5.75.33-.31,1-.79,2.65-2.36,5.31-5,3.14-2.58,5.31-5l2.18-2.43,9,9.06L158,178.45l-6.56,5.84-4,3.41Z"/></g></svg>